<svg id="Capa_1" enable-background="new 0 0 512 512" height="512" viewBox="0 0 512 512" width="512" xmlns="http://www.w3.org/2000/svg"><g id="Internet"><path d="m241 0v151h99.858c6.169 4.97 32.408 33.2 35.142 36.211l36.211-36.211h99.789v-151zm90 91h-30v-30h30zm60 0h-30v-30h30zm60 0h-30v-30h30z"/><path d="m171.142 361c-6.169-4.97-32.408-33.2-35.142-36.211l-36.211 36.211h-99.789v151h271v-151zm-80.142 90h-30v-30h30zm60 0h-30v-30h30zm60 0h-30v-30h30z"/><g><path d="m219.555 181c-4.2 16.959-7.011 37.224-7.954 60h88.705c-.917-21.603-3.71-41.944-8.188-60z"/><path d="m219.882 331h72.563c4.2-16.959 7.011-37.224 7.954-60h-88.705c.917 21.603 3.71 41.944 8.188 60z"/><path d="m330.295 241h89.225c-1.501-15.397-4.521-30.439-10.181-44.702l-33.545 33.554c-2.932-3.027-40.989-42.314-38.057-39.287-2.358-3.267-5.127-6.46-8.247-9.565h-6.356c4.046 18.444 6.341 38.756 7.161 60z"/><path d="m181.308 241c1.84-45.278 11.97-90.352 29.692-119.09v-24.514c-64.46 18.321-112.454 74.976-118.742 143.604z"/><path d="m330.692 271c-1.84 45.278-11.97 90.352-29.692 119.09v24.514c64.46-18.321 112.454-74.976 118.742-143.604z"/><path d="m181.705 271h-89.224c1.503 15.394 4.523 30.434 10.182 44.698l33.541-33.55c2.932 3.027 40.989 42.314 38.057 39.287 2.358 3.267 5.127 6.46 8.247 9.565h6.356c-4.044-18.444-6.339-38.756-7.159-60z"/></g></g></svg>