<svg id="Layer_1_1_" enable-background="new 0 0 64 64" height="512" viewBox="0 0 64 64" width="512" xmlns="http://www.w3.org/2000/svg"><path d="m42 43c0-1.654-1.346-3-3-3-.975 0-1.879-.292-2.65-.777l-3.35 1.436v3.341h9z"/><path d="m34.022 35.217c-.018.008-.034.019-.052.027-.626.268-1.298.402-1.97.402s-1.344-.134-1.969-.402c-.019-.008-.035-.019-.053-.028-.037.843-.283 1.626-.688 2.311l2.742 1.371 2.777-1.19c-.47-.724-.747-1.576-.787-2.491z"/><path d="m30.817 33.406c.752.321 1.612.321 2.364 0h.001c2.655-1.138 4.441-3.608 4.753-6.433-1.635-.325-3.039-1.296-3.902-2.68-1.062 1.645-2.895 2.738-4.973 2.761l-2.987.033c.347 2.778 2.125 5.196 4.744 6.319z"/><path d="m25.033 46.381c2.175 1.059 4.557 1.619 6.967 1.619 2.802 0 5.436-.729 7.729-2h-14.315z"/><path d="m31 18c-2.757 0-5 2.243-5 5v2.088l3.039-.033c2.184-.025 3.961-1.822 3.961-4.006 0-.514.39-.969.901-1.02.531-.051.979.271 1.079.775l.215 1.077c.3 1.499 1.398 2.639 2.805 3.047v-1.928c0-2.757-2.243-5-5-5z"/><path d="m5 36h3.007c1.323 0 2.503.882 2.869 2.144.187.643.427 1.3.691 1.96.47-.061.946-.104 1.433-.104 1.051 0 2.099.155 3.124.461l.011-.011c-1.394-2.606-2.135-5.509-2.135-8.45 0-9.925 8.075-18 18-18 2.941 0 5.844.742 8.452 2.135l.01-.01c-.307-1.024-.462-2.073-.462-3.125 0-.487.043-.963.104-1.433-.662-.265-1.321-.505-1.961-.691-1.261-.367-2.143-1.546-2.143-2.87v-3.006c0-.551-.448-1-1-1h-6c-.552 0-1 .449-1 1v3.006c0 1.323-.882 2.503-2.145 2.869-1.539.447-3.034 1.067-4.443 1.842-1.152.634-2.612.425-3.548-.511l-2.128-2.127c-.391-.39-1.023-.39-1.414 0l-4.242 4.243c-.188.189-.293.44-.293.707s.104.518.293.707l2.127 2.128c.936.936 1.146 2.395.511 3.548-.775 1.408-1.396 2.904-1.843 4.444-.365 1.262-1.545 2.144-2.868 2.144h-3.007c-.552 0-1 .449-1 1v6c0 .551.448 1 1 1z"/><path d="m8.293 48.293c.187-.188.441-.293.707-.293h6c.553 0 1 .448 1 1v6c0 .265-.105.52-.293.707l-4.169 4.169c.485.082.974.124 1.462.124 4.963 0 9-4.038 9-9 0-1.03-.184-2.058-.545-3.055-.132-.365-.041-.773.233-1.048l.898-.897h-1.586c-.553 0-1-.448-1-1v-2c0-2.757 2.243-5 5-5 1.654 0 3-1.346 3-3v-.957c-2.474-1.851-4-4.762-4-7.945v-3.098c0-3.175 2.127-5.858 5.028-6.712-7.405 1.398-13.028 7.906-13.028 15.712 0 2.41.56 4.793 1.618 6.967l5.675-5.674 1.414 1.414-7.604 7.604c-.273.274-.685.365-1.047.233-.999-.361-2.028-.544-3.056-.544-4.963 0-9 4.038-9 9 0 .489.041.978.123 1.463z"/><path d="m42.312 17.103-2.964 2.964c.414.894.652 1.885.652 2.933v3.099c0 3.183-1.526 6.094-4 7.945v.956c0 1.654 1.346 3 3 3 2.617 0 4.748 2.029 4.959 4.593 2.505-2.825 4.041-6.529 4.041-10.593 0-2.41-.56-4.792-1.618-6.967l-3.675 3.674-1.414-1.414 5.604-5.604c.273-.274.685-.365 1.047-.233.999.361 2.028.544 3.056.544 4.963 0 9-4.038 9-9 0-.489-.041-.978-.123-1.463l-4.17 4.17c-.187.188-.441.293-.707.293h-6c-.553 0-1-.448-1-1v-6c0-.265.105-.52.293-.707l4.169-4.169c-.485-.082-.974-.124-1.462-.124-4.963 0-9 4.038-9 9 0 1.03.184 2.058.545 3.055.132.365.041.774-.233 1.048z"/><path d="m38.968 17.619c-1.271-.619-2.613-1.066-3.991-1.33 1.272.375 2.391 1.104 3.25 2.071z"/><path d="m53.125 38.144c.365-1.262 1.545-2.144 2.868-2.144h3.007c.552 0 1-.449 1-1v-6c0-.551-.448-1-1-1h-3.007c-1.323 0-2.503-.882-2.869-2.144-.187-.643-.427-1.3-.691-1.96-.47.061-.946.104-1.433.104-1.051 0-2.099-.155-3.124-.461l-.011.011c1.394 2.606 2.135 5.509 2.135 8.45 0 5.402-2.403 10.243-6.183 13.545-.098.147-.224.27-.385.348-3.111 2.564-7.095 4.107-11.432 4.107-2.941 0-5.844-.742-8.452-2.135l-.01.01c.307 1.025.462 2.073.462 3.125 0 .487-.043.963-.104 1.434.66.264 1.318.504 1.961.691 1.261.366 2.143 1.545 2.143 2.869v3.006c0 .551.448 1 1 1h6c.552 0 1-.449 1-1v-3.006c0-1.323.882-2.503 2.145-2.869 1.54-.448 3.036-1.068 4.443-1.842 1.153-.634 2.612-.425 3.548.511l2.128 2.127c.391.39 1.023.389 1.414 0l4.242-4.242c.39-.39.39-1.024 0-1.415l-2.127-2.127c-.936-.936-1.146-2.395-.511-3.548.776-1.409 1.396-2.905 1.843-4.445z"/><path d="m25 40c-1.654 0-3 1.346-3 3v1h9v-3.382l-3.108-1.554c-.819.584-1.813.936-2.892.936z"/></svg>