<svg xmlns="http://www.w3.org/2000/svg" width="1009.60589" height="681.58439" viewBox="0 0 1009.60589 681.58439" xmlns:xlink="http://www.w3.org/1999/xlink" role="img" artist="Katerina Limpitsouni" source="https://undraw.co/"><path d="M281.98032,417.21891l110.05236,112.22015-56.51223,25.0256-94.87856-101.62438c-13.86465-.81455-28.38941-7.86748-39.25814-20.48056-19.01744-22.06967-19.62775-52.71898-1.36322-68.45761,18.26459-15.73855,48.48723-10.60632,67.50472,11.46342,10.86879,12.61316,15.69771,28.02082,14.45507,41.85338Z" fill="#a0616a"/><polygon points="125.10546 588.12039 0 681.58439 1009.60589 681.58439 916.87208 588.85058 125.10546 588.12039" fill="#d6d6e3"/><path d="M940.72487,618.78827l-83.72816,31.15467-127.36097-4.80741s79.89125-33.7355,102.53459-34.05509c22.64334-.31959,76.17536,2.59189,108.55454,7.70784Z" fill="#fff"/><path d="M631.29945,168.00414c13.96323-45.51582-11.61526-93.73323-57.13138-107.69655-45.51613-13.96332-93.73353,11.61516-107.69676,57.13098-11.32418,36.91334,3.36235,75.60008,33.59585,96.3547l-52.61774,131.88845,258.48637-21.90562s-130.94419-70.30175-132.62288-98.3886c26.76729-7.93653,49.18466-28.69189,57.98655-57.38335Z" fill="#a0616a"/><path d="M693.12927,291.66428l20.0205-9.24904s22.87168,2.91612,29.69429,28.72071c6.82261,25.80459,37.96975,164.04879,37.96975,164.04879,0,0,18.24716,18.00666,7.78867,42.83767,0,0,3.64341,27.50222-7.78867,31.64302s-88.02141,63.26492-88.02141,63.26492l.33687-321.26606Z" fill="#090814"/><path d="M632.8291,255.6419l-58.32707-30.44112c-11.93391,59.38371-66.92634,61.57427-78.86025,2.19056l-38.05768,28.25055-80.32053,26.77342,11.68296,311.42353,163.03379-.47009.01243.47009h149.47407l11.68296-311.42353-80.32067-26.77342Z" fill="#090814"/><path d="M397.28403,291.66428l-20.0205-9.24904s-22.87168,2.91612-29.69429,28.72071c-6.82261,25.80459,5.8415,175.0016,5.8415,175.0016,0,0-18.24716,18.00666-7.78867,42.83767,0,0-3.64341,27.50222,7.78867,31.64302,11.43207,4.1408,43.87329,5.97398,43.87329,5.97398v-274.92793Z" fill="#090814"/><path d="M362.59916,457.22101l-37.42233-1.02115-27.26033-26.77354s-24.59051,40.15568-43.81125,42.83767c0,0,51.34899,99.54739,99.3055,88.35425l16.42486-76.36913-7.23644-27.02809Z" fill="#090814"/><path d="M705.83095,627.19039h-334.96994c-9.40081,0-17.18222-7.05515-18.09995-16.40997l-20.73868-211.15824c-.50058-5.09776,1.18513-10.19874,4.62607-13.99372,3.43987-3.79498,8.35152-5.97164,13.47388-5.97164h378.33195c5.15338,0,10.08429,2.19805,13.52843,6.03153,3.44415,3.83241,5.10418,8.96975,4.55547,14.09319l-22.62333,211.15824c-.9926,9.2639-8.76653,16.25059-18.08391,16.25059Z" fill="#6c63ff"/><polygon points="278.69575 472.7554 223.93169 472.7554 204.21663 339.1311 289.64856 339.1311 278.69575 472.7554" fill="#6c63ff"/><polygon points="823.16469 600.77698 750.63273 600.77698 739.92162 605.53951 784.70815 642.15427 869.89669 644.58823 869.40989 633.39202 823.16469 600.77698" fill="#090814"/><path d="M329.55795,631.93164l-83.72816,31.15467-127.36097-4.80741s79.89125-33.7355,102.53459-34.05509c22.64334-.31959,76.17536,2.59189,108.55454,7.70784Z" fill="#f2f2f2"/><path d="M312.03345,620.97883l-83.72816,31.15467-127.36097-4.80741s79.89125-33.7355,102.53459-34.05509c22.64334-.31959,76.17536,2.59189,108.55454,7.70784Z" fill="#fff"/><path d="M476.32563,101.57213l-5.9431,60.6299s-62.36325-121.0085,15.19214-143.38449c0,0-7.5528-10.22726,3.40754-13.63017s114.8753-19.7197,123.15829,31.15467c0,0,54.2848,33.64477,37.85558,69.64159l-19.3575,42.32049-17.5245.97358s-.49432-80.56865-27.26033-77.88666c-26.76601,2.68199-109.52812,30.18108-109.52812,30.18108Z" fill="#090814"/><path d="M625.76124,140.03197s-7.31654,32.15731-10.51481,56.14386c-16.05673,19.10164-40.13099,31.21551-67.03116,31.21551-32.48608,0-60.83196-17.67799-75.96869-43.94281-.8105-11.98231.67907-21.16064.67907-21.16064,1.44571,27.18469,27.1411,31.25937,27.1411,31.25937,0,0,15.20251-9.20026,40.02148-10.0768,24.81911-.89794,47.22852,10.58059,47.22852,10.58059,17.26164-1.40172,25.80489-53.66878,25.80489-53.66878l12.63959-.3503Z" fill="#090814"/></svg>